<svg xmlns="http://www.w3.org/2000/svg" xmlns:xlink="http://www.w3.org/1999/xlink" version="1.1" x="0px" y="0px" viewBox="0 0 50.4 50.4" enable-background="new 0 0 50.4 50.4" xml:space="preserve"><g><path style="fill:#ef8b05;" d="M20.985,7.186c0,0,1.543-1.594,3.974-1.55c2.432,0.041,3.727,1.436,3.727,1.436l1.89-4.995L26.721,3.1l-1.738-3.017   L23.076,3.17l-3.95-1.263L20.985,7.186z"></path><path fill="#ef8b05" d="M24.994,7.255c2.383,0,4.314,1.931,4.314,4.313c0,2.383-1.932,4.309-4.314,4.309c-2.379,0-4.31-1.925-4.31-4.309   C20.685,9.186,22.615,7.255,24.994,7.255z"></path></g><g><rect x="5.303" y="30.269" width="6.194" height="20.132"></rect><path fill="#ef8b05" d="M7.154,29.191h7.763v-0.003h2.895v-6.112h1.802v8.716h-3.875c-1.362,0-2.491,1.135-2.491,2.496   c0,0.03-0.005,16.112-0.005,16.112h4.937V36.728h1.659h10.534h1.627V50.4h4.938c0,0,0-16.078,0-16.138   c0-1.361-1.102-2.471-2.467-2.471h-4.098h-0.36v-8.716h1.841l0.004,6.112h3.416v0.003h7.764c1.037,0,1.883-0.845,1.883-1.883   s-0.846-1.88-1.883-1.88h-7.412v-3.695c0-3.097-2.219-4.853-5.252-4.853H19.299c-3.035,0-5.252,1.755-5.252,4.853v3.695H7.154   c-1.04,0-1.882,0.842-1.882,1.88S6.114,29.191,7.154,29.191z"></path><rect x="20.338" y="38.968" width="9.47" height="11.433"></rect><rect x="38.715" y="30.269" width="6.193" height="20.132"></rect></g></svg>
