<svg xmlns="http://www.w3.org/2000/svg" xmlns:xlink="http://www.w3.org/1999/xlink" version="1.1" x="0px" y="0px" viewBox="0 0 100 100" style="enable-background:new 0 0 100 100;" xml:space="preserve"><style type="text/css">

	.st0{fill:#010202;}

</style><path style="fill:#ef8b05;" class="st0" d="M74.557,57.025c2.134-5.019,4.152-11.505,5.688-18.698c3.624-16.973,3.188-31.454-0.975-32.343  c-4.163-0.889-10.478,12.15-14.102,29.123c-1.159,5.427-1.902,10.597-2.242,15.151c-3.151-2.15-7.844-3.515-13.083-3.515  c-4.822,0-9.18,1.156-12.301,3.015c-0.355-4.436-1.086-9.434-2.204-14.67C31.713,18.115,25.4,5.076,21.236,5.965  c-4.163,0.889-4.6,15.37-0.975,32.343c1.491,6.979,3.436,13.291,5.498,18.245c-5.257,3.822-8.461,8.902-8.461,14.476  c0,5.962,3.664,11.355,9.583,15.253c0,0.001,0.001,0.001,0.001,0.001c0.021,0.014,0.044,0.029,0.069,0.044  c0.147,0.097,0.294,0.192,0.443,0.287c1.575,1.023,5.615,3.696,7.5,5.128c3.333,2.531,8.787,4.182,14.948,4.182  c6.129,0,11.556-1.632,14.895-4.139c2.189-1.646,7.203-4.924,7.92-5.405c0.001-0.001,0.001-0.003,0.003-0.003  c6.004-3.904,9.729-9.338,9.729-15.348C82.389,65.682,79.438,60.789,74.557,57.025z M37.893,69.08  c-3.547-0.861-6.527-5.906-6.069-7.8c0.459-1.892,4.001,0.914,7.549,1.774s6.209,1.241,5.75,3.134  C44.665,68.081,41.44,69.94,37.893,69.08z M50.163,83.964l0.03-0.002c0,0-0.036,2.554,0.017,2.604  c0.052,0.05,0.992,0.001,0.992,0.001s0.195,0.093,0.191,0.354c-0.005,0.261-0.184,0.26-0.184,0.26h-2.59  c0,0-0.211-0.007-0.214-0.266c-0.002-0.26,0.216-0.348,0.216-0.348s0.972,0.028,1.02-0.004c0.047-0.033,0.014-2.594,0.014-2.594  l0.189,0.005c-4.264,0-7.827-4.525-7.827-7.439s3.563-3.112,7.827-3.112c4.263,0,7.72,0.147,7.72,3.061  C57.563,79.323,54.278,83.742,50.163,83.964z M62.269,69.08c-3.547,0.86-6.771-0.999-7.229-2.892  c-0.46-1.893,2.203-2.273,5.75-3.134c3.548-0.86,7.09-3.666,7.548-1.774C68.797,63.174,65.816,68.219,62.269,69.08z"></path></svg>
