<?xml version="1.0" encoding="utf-8"?><!DOCTYPE svg PUBLIC "-//W3C//DTD SVG 1.1//EN" "http://www.w3.org/Graphics/SVG/1.1/DTD/svg11.dtd"><svg version="1.1" xmlns="http://www.w3.org/2000/svg" xmlns:xlink="http://www.w3.org/1999/xlink" x="0px" y="0px" viewBox="0 -0.221 100 45.441" enable-background="new 0 -0.221 100 45.441" xml:space="preserve"><g><path style="fill:#ef8b05;" d="M99.669,9.819c-0.221-1.308-1.946-2.615-2.002-3.422c-0.122-0.261-0.029-0.493,0.05-0.751
		c-0.268,0.152-0.479,0.32-0.596,0.514c-0.124,0.092-0.335-0.762-0.087-0.738c0.243,0.048,0.488,0.057,0.732,0.032
		c0.039-0.191,0.045-0.402-0.06-0.652c-0.224-1.062-1.906-1.928-4.4-2.687c-0.117-1.075-0.445-1.906-1.246-2.258
		c-1.491-0.258-2.081,0.137-1.908,1.09c-1.827-0.488-2.716,0.12-2.726,1.751c-2.54-0.133-1.678,1.417-2.505,1.104
		c-0.901-0.343-1.733,0.358-2.129,0.96c-1.722,1.322-3.306,1.353-4.088,1.09c-1.937-0.893-3.23,0.255-4.479,0.428
		c-2.965,0.248-5.533-0.014-7.438-1.129c-7.257-3.495-18.191-5.618-26.866-1.712C33.983,6.197,29.534,9.75,25.866,13.718
		c-4.1,3.476-9.464,6.764-16.09,6.876C9.387,20.6,9.068,20.905,8.721,21.06c-4.27-0.306-1.575,0.931-2.877,0.532
		c-0.993-0.305-1.37,0.255-2.057,0.381c-1.766-1.158-3.736-0.673-3.776,0.585c-0.133,0.7,1.029,1.738,0.896,2.375
		c-0.092,1.503,1.181,1.689,3.31,1.052c1.743-0.312,2.961-1.705,4.672-1.401c2.256,0.133,4.111-1.152,5.565-0.896
		c9.44-1.384,15.782-8.947,20.251-11.915c1.73,0.827,1.393,4.43,3.894,5.256c3.505,0.96,6.858,4.451,9.5,4.362
		c0.965,7.45-1.464,7.096-1.363,8.839c0.167,1.245,2.31,1.999,3.465,2.997c0.411,0.486-0.504,0.94-0.156,1.363
		c0.885,2.07,3.868,2.414,5.801,3.621c0.104,0.741-2.693,1.666-3.114,1.48c-0.797-0.741-1.532,0.986-2.297,1.479
		c-3.024-0.002-4.982,0.783-6.113,2.181c-0.555,0.849,0.339,1.821,1.479,1.713c1.277-0.114,1.939,0.595,3.465-0.312
		c0.779-0.507,1.558-1.012,2.336-1.519c0.351-0.156,0.7-0.312,1.051-0.468c2.441-0.597,4.881-1.194,7.321-1.791
		c0.892-0.153,0.732,0.771,1.324,1.013c1.101,0.445,2.133,0.017,2.647,0.312c0.775,0.399,1.316,1.172,2.297,0.273
		c0.235-0.246,0.716,0.204,0.99,0c0.273-0.258-0.137-0.789,0-0.897c0.237-0.194,0.747,0.619,0.956,0.273
		c0.03-0.58-0.186-1.127-0.739-1.636c-0.588-0.736-1.661-0.778-2.491-1.168c1.714-0.439,3.426-0.882,5.14-1.323
		c1.062-0.359,1.977-1.067,2.159-3.209c0.4-1.667-1.135-2.302-1.187-5.124c2.352-0.358,1.996-1.688,5.803-1.907
		c3.205-0.859,5.836-3.573,6.463-5.802c0.058-1.553,1.57-1.885,1.791-2.688c0.213-0.464,3.145-5.208,8.294-5.53
		c0.536-0.146,1.035,0.607,1.714,0.663c1.117,0.109,2.106-0.443,2.083-1.147c0.027-0.428-0.253-0.411-0.33-0.566
		c0.434-0.209,0.916,0.185,1.439-0.195c0.578-0.387,0.887-0.863,0.896-1.44c0.402,0.006,0.656-0.264,0.775-0.795
		C99.96,9.792,99.779,9.907,99.669,9.819z M49.891,31.663c0.087-3.142-0.479-5.385-0.717-8.078c0.571,2.189,1.004,4.729,1.139,8.01
		C50.294,31.985,49.868,31.967,49.891,31.663z M46.469,4.585c8.855,0.069,12.71,4.748,11.299,14.272
		C58.55,8.802,53.883,5.094,46.469,4.585z M63.186,27.75c-1.905,1.129-3.203,2.987-3.899,5.578l-0.025-0.014
		c-0.287,0.479-0.493,1.364-0.599,2.076c0.079-0.739,0.226-1.445,0.425-2.173l-2.233-1.231c-0.687-0.557-0.875-1.327-0.672-2.265
		c0.288-1.148,1.728-3.001,1.133-6.291c1.729,1.002,3.959,2.526,6.332,1.93C64.302,26.561,64.059,27.36,63.186,27.75z M67.778,34.79
		c-0.718-0.068-1.31,0.814-2.075,0.621c-0.372-0.269-0.969,0.028-1.266-0.239c1.159-0.979,1.639-2.349,2.923-2.879
		C67.976,32.484,68.509,34.624,67.778,34.79z M67.546,23.453c1.215-5.665,4.511-8.253,10.191-7.317
		C72.798,15.648,69.403,18.236,67.546,23.453z"></path><path d="M97.072,5.491c-0.21-0.016-0.032,0.538,0.074,0.477c0.167-0.211,0.568-0.375,1.029-0.528
		C97.809,5.519,97.44,5.546,97.072,5.491z"></path></g></svg>
