<svg xmlns="http://www.w3.org/2000/svg" xmlns:xlink="http://www.w3.org/1999/xlink" version="1.1" x="0px" y="0px" viewBox="0 0 72 72" enable-background="new 0 0 72 72" xml:space="preserve"><g><path  style="fill:#ef8b05;" d="M64.9,13.3C50.4,11.2,42.3,5.2,38.6,1.5c-1.4-1.4-3.7-1.4-5.2,0c-3.7,3.7-11.8,9.6-26.3,11.8   c-2,0.3-3.3,2.1-3,4c2,10.9,9.7,43.7,30.2,53.8c1.1,0.5,2.3,0.5,3.4,0C58.1,61,65.8,28.2,67.9,17.3C68.2,15.4,66.9,13.6,64.9,13.3z    M63.3,19.9c-2.6,11.8-9.8,37.6-25.9,46.8c-0.8,0.5-1.9,0.5-2.7,0c-16.1-9.2-23.4-35-25.9-46.8c-0.3-1.5,0.6-2.9,2.1-3.2   c11.8-2.3,19.3-7.1,23.5-10.6c1-0.8,2.4-0.8,3.4,0c4.2,3.5,11.7,8.3,23.5,10.6C62.6,17,63.6,18.4,63.3,19.9z"></path><path fill="#ef8b05" d="M55.8,20.5c-9.9-1.5-15.5-5.6-18-8.1c-0.4-0.3-0.8-0.6-1.3-0.7c-0.3-0.1-0.6,0.2-0.6,0.5v47.3   c0,0.3,0.3,0.6,0.6,0.6c0.2,0,0.5-0.1,0.7-0.2c14-6.9,19.2-29.3,20.6-36.8C58,22,57.1,20.7,55.8,20.5z"></path></g></svg>
