<svg xmlns="http://www.w3.org/2000/svg" xmlns:xlink="http://www.w3.org/1999/xlink" version="1.1" x="0px" y="0px" viewBox="0 0 100 100" enable-background="new 0 0 100 100" xml:space="preserve"><g><path style="fill: #D3D3D3;" d="M32.107,24.469c0,1.879-1.521,3.402-3.4,3.402c-1.877,0-3.4-1.523-3.4-3.402c0-1.875,1.523-3.398,3.4-3.398   C30.586,21.07,32.107,22.594,32.107,24.469z"></path><path fill="#D3D3D3" d="M32.107,36.938c0,1.88-1.521,3.398-3.4,3.398c-1.877,0-3.4-1.519-3.4-3.398c0-1.877,1.523-3.398,3.4-3.398   C30.586,33.54,32.107,35.062,32.107,36.938z"></path><circle cx="28.707" cy="49.408" r="3.4"></circle><path fill="#D3D3D3" d="M62.854,27.541H40.041c-1.693,0-3.069-1.374-3.069-3.072c0-1.694,1.376-3.068,3.069-3.068h22.813   c1.696,0,3.069,1.374,3.069,3.068C65.924,26.167,64.551,27.541,62.854,27.541z"></path><path fill="#D3D3D3" d="M62.854,40.011H40.041c-1.693,0-3.069-1.376-3.069-3.072s1.376-3.072,3.069-3.072h22.813c1.696,0,3.069,1.376,3.069,3.072   S64.551,40.011,62.854,40.011z"></path><path fill="#D3D3D3" d="M62.854,52.479H40.041c-1.693,0-3.069-1.376-3.069-3.07c0-1.699,1.376-3.072,3.069-3.072h22.813   c1.696,0,3.069,1.373,3.069,3.072C65.924,51.103,64.551,52.479,62.854,52.479z"></path><circle cx="28.707" cy="61.102" r="3.4"></circle><path fill="#D3D3D3" d="M62.854,64.174H40.041c-1.693,0-3.069-1.375-3.069-3.072c0-1.696,1.376-3.069,3.069-3.069h22.813   c1.696,0,3.069,1.373,3.069,3.069C65.924,62.799,64.551,64.174,62.854,64.174z"></path><path fill="#D3D3D3" d="M95,22.852c0-11.092-4.096-15.188-9.152-15.188H23.602c-5.199,0-9.432,4.229-9.432,9.433v59.298h-0.018H5   c0,13.849,5.111,15.943,11.422,15.943h7.18h40.125h7.297c5.203,0,9.434-4.229,9.434-9.433V22.852H95z M76.683,82.904   c0,3.12-2.538,5.659-5.659,5.659c-5.052,0-7.638-1.078-7.638-12.17H50.207H17.945V17.096c0-3.12,2.534-5.659,5.656-5.659h55.572   c-1.496,2.371-2.428,5.96-2.469,11.082c-0.012,0.115-0.022,0.23-0.022,0.333V82.904z"></path></g></svg>
